<svg width="512" height="512" viewBox="0 0 512 512" fill="none" xmlns="http://www.w3.org/2000/svg">
<rect width="512" height="512" fill="white"/>
<path d="M420.298 160.478V249.313H101.254V160.478H420.298Z" fill="#00DA0A"/>
<path fill-rule="evenodd" clip-rule="evenodd" d="M86.9254 64L86.9254 146.149H63.0448V169.075H86.9254V238.806H63.0448V261.731H86.9254V320.955H63.0448V343.881H86.9254V445.134H245.493V452.776H268.418V445.134H426.985V343.881H449.91V320.955H426.985V261.731H449.91V238.806H426.985V169.075H449.91V146.149H426.985V64H86.9254ZM268.418 422.209H404.06V343.881H268.418V422.209ZM268.418 320.955H404.06V261.731H268.418V320.955ZM245.493 261.731V320.955H109.851V261.731H245.493ZM268.418 238.806H404.06V169.075H268.418V238.806ZM245.493 169.075V238.806H109.851V169.075H245.493ZM268.418 146.149V132.776H245.493V146.149H109.851V86.9254H404.06V146.149H268.418ZM245.493 343.881V422.209H109.851V343.881H245.493Z" fill="black"/>
</svg>
